<?xml version="1.0" standalone="no"?>
<!DOCTYPE svg PUBLIC "-//W3C//DTD SVG 20010904//EN"
 "http://www.w3.org/TR/2001/REC-SVG-20010904/DTD/svg10.dtd">
<svg version="1.0" xmlns="http://www.w3.org/2000/svg"
 width="180.000000pt" height="180.000000pt" viewBox="0 0 180.000000 180.000000"
 preserveAspectRatio="xMidYMid meet">
<metadata>
Created by potrace 1.14, written by Peter Selinger 2001-2017
</metadata>
<g transform="translate(0.000000,180.000000) scale(0.100000,-0.100000)"
fill="#000000" stroke="none">
<path d="M0 900 l0 -900 900 0 900 0 0 900 0 900 -900 0 -900 0 0 -900z m420
58 c0 -394 -3 -428 -46 -486 -44 -57 -137 -88 -231 -76 l-53 6 0 49 0 49 32
-8 c18 -4 54 -7 80 -7 39 0 53 5 75 28 l28 27 3 395 3 395 54 0 55 0 0 -372z
m550 342 c61 -34 90 -80 90 -142 0 -78 -39 -138 -118 -186 l-34 -20 37 -12
c47 -16 114 -75 132 -117 23 -57 17 -133 -16 -184 -46 -74 -77 -83 -273 -87
l-168 -3 0 392 0 391 153 -4 c139 -3 156 -6 197 -28z m640 8 c101 -43 137
-198 75 -317 -37 -73 -160 -131 -276 -131 l-59 0 0 -155 0 -155 -55 0 -55 0 0
391 0 391 168 -4 c120 -3 177 -9 202 -20z"/>
<path d="M730 1120 l0 -130 53 0 c95 0 167 61 167 141 0 62 -39 98 -120 109
-110 16 -100 28 -100 -120z"/>
<path d="M730 774 l0 -147 86 6 c99 7 129 22 151 74 40 97 -42 189 -184 208
l-53 7 0 -148z"/>
<path d="M1350 1095 l0 -158 65 6 c70 7 108 22 142 59 63 67 55 186 -15 222
-15 8 -65 17 -110 21 l-82 8 0 -158z"/>
</g>
</svg>
