<?xml version="1.0" standalone="no"?>
<!DOCTYPE svg PUBLIC "-//W3C//DTD SVG 20010904//EN"
 "http://www.w3.org/TR/2001/REC-SVG-20010904/DTD/svg10.dtd">
<svg version="1.0" xmlns="http://www.w3.org/2000/svg"
 width="196.000000pt" height="196.000000pt" viewBox="0 0 196.000000 196.000000"
 preserveAspectRatio="xMidYMid meet">
<metadata>
Created by potrace 1.14, written by Peter Selinger 2001-2017
</metadata>
<g transform="translate(0.000000,196.000000) scale(0.100000,-0.100000)"
fill="#000000" stroke="none">
<path d="M0 980 l0 -980 980 0 980 0 0 980 0 980 -980 0 -980 0 0 -980z m458
48 c-3 -458 -4 -465 -61 -526 -52 -56 -174 -86 -271 -68 -36 7 -36 7 -36 57
l0 51 53 -8 c110 -17 161 1 184 67 8 24 12 153 12 442 l1 407 61 0 60 0 -3
-422z m582 395 c152 -67 156 -253 8 -348 -26 -16 -47 -32 -47 -35 -1 -3 19
-13 43 -23 54 -22 103 -70 127 -122 43 -93 6 -212 -79 -263 -46 -26 -51 -27
-234 -30 l-188 -4 0 420 c0 230 3 422 8 426 4 5 77 6 162 4 127 -4 163 -8 200
-25z m705 3 c58 -25 93 -63 110 -120 42 -140 -18 -277 -144 -333 -44 -20 -166
-43 -228 -43 -10 0 -13 -40 -13 -165 l0 -165 -60 0 -60 0 0 426 0 427 178 -5
c134 -4 187 -10 217 -22z"/>
<path d="M795 1348 c-3 -8 -4 -72 -3 -144 3 -125 4 -129 26 -132 48 -7 134 19
170 52 30 28 36 40 40 89 8 95 -29 128 -160 142 -54 6 -69 4 -73 -7z"/>
<path d="M797 993 c-4 -3 -7 -73 -7 -155 l0 -148 80 0 c132 0 190 40 190 129
0 56 -26 101 -77 135 -53 35 -167 59 -186 39z"/>
<path d="M1470 1195 l0 -165 58 0 c79 0 123 14 159 52 40 41 53 76 53 139 0
93 -73 139 -221 139 l-49 0 0 -165z"/>
</g>
</svg>
